<?xml version="1.0" encoding="UTF-8"?>
<svg width="1000" height="750" xmlns="http://www.w3.org/2000/svg" xmlns:svg="http://www.w3.org/2000/svg">
 <title>white graduation cap</title>
 <metadata id="metadata3974">image/svg+xml</metadata>

 <g>
  <title>Layer 1</title>
  <g id="layer1">
   <path d="m275.240479,119.745506l452.050903,0l25.294373,342.341866c-3.220154,58.413605 -4.766968,60.30838 -28.545349,86.285126c-29.241394,25.15033 -64.669312,38.443359 -96.919922,47.929504c-80.906128,23.797546 -170.282593,23.637268 -278.138519,-28.790771c-35.151947,-16.001221 -50.822418,-86.190186 -48.447174,-115.022949l-25.294312,-332.742775z" id="rect3761-0" stroke-miterlimit="4" stroke-width="0.240526" stroke="#d3d3d3" fill-rule="nonzero" fill="#ffffff"/>
   <path d="m0.8555,155.945053l488.060088,-155.141523l508.892151,142.213087l-491.036163,271.49791l-505.916076,-258.569504l0,0.000031z" id="rect2830-2" fill="#ffffff"/>
   <path d="m185.542191,482.174683l26.824875,-1.037415c15.16954,89.28479 42.87059,213.378296 34.431107,233.591125c-10.772644,33.30249 -61.615341,47.360535 -73.602737,9.375061c0.691879,-71.825745 14.370453,-146.306946 12.346756,-241.928772z" id="rect3614-4" fill-rule="nonzero" fill="#ffffff"/>
   <path d="m542.001526,132.878937c-17.66156,13.983154 -54.654419,-12.520264 -60.620575,-1.361313c-0.623596,1.169403 -0.007813,7.78624 0.085754,9.748062c14.56543,15.414429 42.675201,15.696594 59.797394,0.191864l0.737427,-8.578613l0,0l0,0l0,0l0,0l0,0z" id="path3605-7-8" fill="#ffffff"/>
   <path d="m500.076111,132.24231l15.070557,6.465576c-76.006012,28.22821 -277.011841,56.524109 -314.185486,109.192383c-11.191864,16.17746 -0.537842,89.472809 -4.103226,134.072693l-17.670914,0.142151c2.428879,-43.613281 -5.269318,-108.451874 2.639328,-133.533081c8.622665,-25.564316 44.315308,-58.844833 318.249771,-116.339722l0,0l-0.000031,0z" id="rect3617-6" fill="#ffffff"/>
   <rect id="rect3612-5" width="1.986819" height="3.280711" x="5.433501" y="34.546599" transform="matrix(15.4356, -3.16666, 2.59865, 22.2595, 1.69276, -331.066)" fill-rule="nonzero" fill="#ffffff"/>
   <path d="m538.288818,122.079353c55.814758,-26.775024 113.778442,-49.500931 182.287903,-47.994507c3.062744,-1.054474 8.246155,7.036964 -2.946167,7.465706c-60.374207,3.484726 -116.910889,27.34481 -174.554443,45.328331c-7.278381,3.55761 -9.211243,-2.856026 -4.787292,-4.79953z" id="rect3723-0" fill="#ffffff"/>
   <path d="m539.289307,140.462448c66.074829,20.679016 132.621521,47.032303 199.705872,105.422073c3.456543,1.532883 5.278442,13.611786 -5.956238,4.720947c-61.081055,-46.834991 -126.680359,-70.913177 -190.976318,-101.554932c-8.64325,-2.632935 -7.9375,-10.398621 -2.773315,-8.588089z" id="rect3723-1-9" fill="#ffffff"/>
   <path d="m500.848602,125.31192c-65.21582,-26.07431 -133.164307,-49.168854 -214.714661,-54.216713c-3.59671,-1.105743 -10.11554,4.769272 3.177826,6.123344c71.656342,8.222595 137.858002,32.076836 205.633026,51.422302c8.501343,3.451996 11.080475,-1.402344 5.903809,-3.328934z" id="rect3723-1-2-0" fill="#ffffff"/>
   <path id="path3610-0" d="m213.952454,404.950165a24.19989,35.043678 0 1 1 -48.39975,0a24.19989,35.043678 0 1 1 48.39975,0z" fill-rule="nonzero" fill="#ffffff"/>
   <path d="m542.00177,132.87825c-13.592468,14.148422 -46.86618,13.675934 -60.788574,0c0,-9.974228 13.60791,-18.060028 30.394257,-18.060028c16.786469,0 30.394318,8.0858 30.394318,18.060028z" id="path3605-6" fill="#ffffff"/>
   <path d="m550.157898,130.784424c55.81488,-26.775047 113.778503,-49.500977 182.287964,-47.994507c3.062622,-1.054726 8.246094,7.036964 -2.946167,7.46566c-60.374329,3.484726 -116.911011,27.344826 -174.554565,45.328331c-7.278198,3.557678 -9.211121,-2.856018 -4.787231,-4.799484z" id="rect3723-8-1" fill="#ffffff"/>
   <path d="m529.865967,147.563965c66.792114,21.159164 134.04541,48.025635 201.751526,107.102371c3.492859,1.560379 5.301758,13.714035 -6.039612,4.712784c-61.665039,-47.426697 -127.96637,-72.000626 -192.930481,-103.165848c-8.737122,-2.695496 -8.001038,-10.498428 -2.781433,-8.649307z" id="rect3723-8-8-3" fill="#ffffff"/>
   <path d="m274.354675,68.564507c67.529327,8.233452 135.944916,20.905464 207.238464,58.898384c3.565674,0.788315 6.268616,10.135193 -5.606232,4.476028c-64.450928,-29.577072 -131.753571,-40.562943 -198.233795,-56.911079c-8.828308,-1.019943 -8.690491,-7.260918 -3.398438,-6.463333z" id="rect3723-8-8-1-8" fill="#ffffff"/>
  </g>
 </g>
</svg>